<?xml version="1.0" standalone="no"?>
<!DOCTYPE svg PUBLIC "-//W3C//DTD SVG 20010904//EN"
 "http://www.w3.org/TR/2001/REC-SVG-20010904/DTD/svg10.dtd">
<svg version="1.0" xmlns="http://www.w3.org/2000/svg"
 width="512.000000pt" height="512.000000pt" viewBox="0 0 512.000000 512.000000"
 preserveAspectRatio="xMidYMid meet">

<g transform="translate(0.000000,512.000000) scale(0.100000,-0.100000)"
fill="#000000" stroke="none">
<path d="M1646 4303 c-14 -86 0 -255 30 -383 28 -114 93 -238 167 -316 118
-125 232 -175 460 -201 78 -8 148 -21 155 -28 7 -6 15 -28 19 -48 l6 -37 -567
0 c-582 0 -594 -1 -623 -39 -14 -18 -16 -227 -5 -389 9 -115 23 -132 108 -132
49 0 54 -2 54 -22 0 -13 25 -318 55 -678 30 -360 64 -765 75 -900 19 -228 36
-350 55 -392 7 -17 -8 -18 -238 -18 l-246 0 -20 -26 c-12 -15 -21 -39 -21 -54
0 -15 9 -39 21 -54 l20 -26 1389 0 1389 0 21 22 c27 29 27 91 0 118 -19 19
-33 20 -276 20 -240 0 -256 1 -249 17 16 44 27 133 60 488 19 209 57 625 85
923 27 299 50 552 50 563 0 16 8 19 55 19 60 0 90 19 99 62 3 13 7 117 9 232
l5 209 -28 29 -28 28 -548 0 -547 0 6 40 c9 66 16 70 138 70 133 0 193 12 289
57 147 70 261 223 311 418 23 92 45 300 35 339 -6 26 -7 26 -99 26 -178 0
-367 -41 -483 -106 -114 -63 -226 -188 -256 -286 -14 -47 -24 -48 -32 -5 -9
48 -61 153 -112 224 -48 68 -117 125 -201 167 -113 56 -350 106 -505 106 l-75
0 -7 -37z m274 -143 c87 -16 216 -57 266 -86 60 -35 136 -120 167 -186 23 -48
61 -178 53 -178 -2 0 -32 27 -67 60 -87 82 -203 160 -239 160 -19 0 -36 -9
-50 -27 -36 -45 -24 -70 70 -146 104 -84 204 -181 191 -185 -5 -2 -47 3 -94
11 -251 44 -368 200 -411 550 l-6 49 28 -6 c15 -3 56 -10 92 -16z m1326 -132
c-36 -279 -177 -447 -391 -465 l-60 -5 45 47 c25 25 78 71 118 101 57 44 72
60 72 81 0 38 -37 73 -75 73 -39 0 -150 -75 -212 -143 -24 -26 -43 -43 -43
-38 0 26 52 159 76 193 82 117 237 187 463 207 11 1 12 -10 7 -51z m364 -1018
l0 -110 -1074 0 -1073 0 -6 83 c-4 45 -7 94 -7 110 l0 27 1080 0 1080 0 0
-110z m-160 -299 c0 -10 -38 -433 -85 -940 -57 -623 -90 -931 -99 -949 -16
-31 -50 -63 -86 -83 -20 -11 -137 -15 -610 -17 -322 -2 -608 0 -637 3 -67 8
-113 39 -140 95 -19 39 -26 101 -58 485 -56 680 -115 1399 -115 1413 0 9 190
12 915 12 889 0 915 -1 915 -19z"/>
<path d="M2825 2279 c-111 -13 -256 -53 -329 -91 -35 -19 -91 -63 -131 -103
-114 -113 -155 -220 -173 -445 -8 -89 -18 -139 -45 -220 -40 -116 -63 -272
-47 -314 11 -30 38 -46 79 -46 46 0 67 35 75 124 8 87 30 169 52 191 12 11 37
15 104 15 398 0 628 233 690 702 6 46 10 108 8 138 l-3 55 -100 1 c-55 1 -136
-2 -180 -7z m109 -196 c-23 -161 -85 -313 -160 -393 -64 -69 -163 -117 -271
-131 -45 -6 -88 -9 -95 -6 -17 6 115 131 215 205 87 64 100 89 70 130 -43 58
-98 38 -261 -91 -69 -55 -72 -56 -66 -30 3 15 19 56 34 90 75 164 227 243 528
272 10 1 12 -10 6 -46z"/>
<path d="M3943 2700 c-12 -5 -29 -20 -37 -33 -15 -22 -14 -29 13 -103 54 -148
66 -229 66 -449 0 -160 -4 -216 -19 -280 -16 -68 -44 -155 -50 -155 -1 0 -46
18 -100 40 -108 44 -127 47 -146 25 -11 -13 -2 -51 49 -218 81 -265 75 -251
114 -244 49 8 419 173 429 191 14 24 4 33 -95 82 -51 26 -93 47 -95 49 -1 1 7
28 18 61 54 155 77 469 50 669 -21 148 -71 317 -106 356 -18 20 -54 24 -91 9z"/>
<path d="M945 2449 c-187 -105 -222 -130 -211 -147 4 -6 58 -28 121 -49 l115
-37 -7 -51 c-5 -27 -8 -140 -7 -250 1 -166 5 -218 23 -305 28 -134 70 -258
120 -357 48 -97 70 -118 112 -109 41 8 89 43 89 65 0 10 -22 60 -48 112 -80
158 -126 336 -138 535 -7 113 1 270 15 293 6 10 27 7 93 -13 169 -52 171 -44
56 199 -49 104 -94 195 -100 202 -21 25 -56 12 -233 -88z"/>
</g>
</svg>
