<?xml version="1.0" standalone="no"?>
<!DOCTYPE svg PUBLIC "-//W3C//DTD SVG 20010904//EN"
 "http://www.w3.org/TR/2001/REC-SVG-20010904/DTD/svg10.dtd">
<svg version="1.0" xmlns="http://www.w3.org/2000/svg"
 width="1024.000000pt" height="1024.000000pt" viewBox="0 0 1024.000000 1024.000000"
 preserveAspectRatio="xMidYMid meet">

<g transform="translate(0.000000,1024.000000) scale(0.100000,-0.100000)"
fill="white" stroke="none">
<path d="M3283 8239 c-7 -7 -13 -30 -13 -51 0 -34 4 -40 45 -64 84 -49 80 -16
83 -652 2 -384 -1 -568 -8 -582 -6 -11 -33 -31 -60 -45 -51 -26 -65 -49 -58
-96 l3 -24 415 -3 c463 -3 544 4 655 58 85 41 158 109 192 178 25 51 28 68 28
157 0 112 -16 173 -67 249 -35 53 -130 125 -203 154 l-49 19 46 21 c65 28 132
93 159 155 20 43 24 68 24 147 -1 83 -4 102 -28 152 -36 73 -87 125 -167 167
-114 61 -134 63 -580 68 -321 4 -408 2 -417 -8z m699 -190 c52 -13 103 -65
118 -119 7 -25 10 -78 8 -120 -5 -88 -31 -143 -81 -176 -44 -29 -150 -54 -225
-54 l-62 0 0 239 0 240 38 4 c48 6 157 -2 204 -14z m32 -662 c89 -27 140 -72
166 -149 36 -104 24 -197 -35 -265 -52 -61 -101 -74 -266 -71 l-134 3 -3 253
-2 253 103 -2 c69 -2 127 -9 171 -22z"/>
<path d="M6385 7790 c-93 -28 -127 -45 -167 -84 -20 -20 -39 -36 -42 -36 -3 0
-8 20 -11 45 -12 79 -11 79 -170 61 -183 -21 -193 -24 -211 -52 -24 -36 -11
-69 39 -96 l42 -23 3 -367 2 -368 -50 -25 c-55 -28 -76 -59 -66 -99 l6 -26
260 0 c237 0 260 1 269 18 15 29 -12 78 -58 101 -52 27 -53 37 -49 368 3 248
4 263 24 290 30 41 75 64 137 70 75 8 121 -9 149 -55 22 -36 23 -44 26 -338
l3 -302 -43 -24 c-39 -21 -43 -27 -46 -64 -2 -26 2 -45 11 -53 11 -8 81 -11
253 -9 222 3 239 4 242 21 7 34 -20 77 -59 98 -22 11 -39 27 -40 37 0 9 0 118
0 242 2 409 -18 520 -108 610 -35 35 -60 50 -107 63 -76 22 -162 21 -239 -3z"/>
<path d="M5032 7780 c-189 -50 -339 -201 -383 -385 -17 -74 -15 -249 4 -322
40 -154 130 -269 261 -333 93 -46 156 -60 270 -60 206 0 404 115 485 282 50
103 64 177 58 303 -9 174 -59 309 -146 394 -124 121 -355 172 -549 121z m214
-171 c53 -25 100 -95 126 -187 29 -98 31 -354 4 -432 -36 -104 -68 -130 -161
-130 -101 0 -147 35 -198 150 -40 92 -51 156 -52 300 0 143 12 198 58 264 40
57 144 74 223 35z"/>
<path d="M3125 6524 c-69 -126 -122 -215 -146 -245 -42 -53 -38 -64 28 -82 55
-16 57 -16 91 5 74 46 183 140 222 192 33 43 41 62 38 88 -3 29 -8 35 -43 46
-22 7 -70 16 -107 19 -66 6 -68 5 -83 -23z"/>
<path d="M3760 6534 c-25 -8 -85 -19 -134 -26 -104 -13 -133 -31 -114 -72 6
-14 28 -37 49 -51 77 -54 74 -26 77 -710 2 -335 5 -611 7 -613 2 -2 70 -19
152 -37 281 -65 488 -35 653 96 131 104 194 247 194 439 0 141 -23 236 -80
333 -82 141 -186 199 -358 200 -103 1 -171 -17 -234 -62 l-39 -29 -6 254 c-4
150 -11 262 -17 274 -9 16 -20 20 -58 19 -26 -1 -67 -7 -92 -15z m394 -643
c105 -25 165 -162 166 -381 0 -232 -70 -349 -215 -358 -77 -5 -127 10 -152 46
-16 24 -18 56 -21 338 l-3 310 33 17 c74 36 123 44 192 28z"/>
<path d="M1117 6534 c-4 -4 -7 -29 -7 -56 0 -45 3 -49 39 -74 73 -48 71 -27
71 -638 l0 -547 -26 -24 c-15 -14 -31 -25 -35 -25 -21 0 -49 -42 -49 -74 0
-71 -26 -66 374 -66 419 0 486 9 634 80 217 104 324 231 383 455 31 117 31
347 0 460 -71 265 -233 423 -498 487 -80 19 -123 21 -483 25 -217 3 -399 1
-403 -3z m786 -212 c86 -41 149 -107 196 -206 114 -239 102 -531 -30 -737 -73
-114 -210 -179 -378 -179 -140 0 -126 -63 -129 580 -2 395 1 556 9 566 28 34
242 19 332 -24z"/>
<path d="M5029 6086 c-109 -20 -179 -79 -239 -200 -33 -66 -38 -107 -14 -130
27 -28 58 -28 115 -3 77 34 117 71 125 115 4 20 12 40 18 44 23 16 102 8 146
-14 56 -29 78 -67 80 -138 3 -110 3 -110 -31 -110 -47 0 -230 -55 -317 -96
-107 -49 -136 -74 -174 -151 -29 -59 -33 -77 -32 -144 1 -100 29 -160 98 -206
61 -42 116 -57 191 -55 92 3 179 38 246 100 l57 52 7 -56 c4 -33 14 -63 25
-74 22 -22 112 -35 177 -26 49 6 161 62 176 87 19 31 -1 68 -51 93 -81 41 -76
21 -82 380 -5 311 -6 323 -29 374 -28 62 -74 105 -151 141 -47 22 -71 26 -165
28 -60 1 -140 -4 -176 -11z m245 -582 c3 -9 6 -56 6 -105 l0 -89 -47 -49
c-119 -122 -259 -73 -238 82 10 69 55 117 143 150 78 30 127 34 136 11z"/>
<path d="M6348 6090 c-54 -16 -152 -98 -189 -157 -12 -18 -24 -33 -28 -33 -4
0 -13 34 -19 75 -5 42 -16 82 -22 90 -15 18 -62 19 -202 4 -118 -12 -148 -26
-148 -69 0 -23 9 -35 43 -57 l42 -29 3 -356 2 -357 -45 -37 c-50 -42 -70 -85
-54 -115 9 -18 24 -19 260 -19 249 0 289 5 289 35 0 36 -24 65 -68 79 -85 30
-82 18 -82 288 l0 239 29 43 c35 50 96 106 115 106 8 0 42 -13 76 -29 98 -47
134 -24 160 102 17 86 -5 185 -45 201 -22 8 -84 6 -117 -4z"/>
<path d="M7150 6088 c-60 -17 -133 -73 -170 -132 -19 -30 -38 -55 -41 -56 -3
0 -12 35 -19 78 -6 42 -17 83 -22 90 -13 15 -80 15 -222 -2 -84 -10 -112 -17
-123 -31 -19 -27 -16 -53 9 -73 12 -9 34 -29 50 -44 l28 -26 0 -340 c0 -326
-1 -340 -20 -365 -11 -14 -29 -28 -39 -32 -24 -7 -54 -64 -50 -95 l4 -25 256
-3 c287 -3 287 -3 275 63 -6 31 -14 39 -61 59 -29 13 -58 33 -64 44 -7 13 -11
103 -11 246 0 251 1 257 78 338 48 50 80 56 135 24 24 -14 53 -26 65 -26 69 0
108 67 106 182 -2 82 -19 113 -71 127 -44 13 -47 12 -93 -1z"/>
<path d="M7665 6090 c-11 -5 -36 -9 -56 -9 -78 -2 -205 -133 -239 -248 -11
-36 -11 -46 3 -67 32 -48 68 -44 174 18 51 30 69 55 75 106 6 52 136 45 195
-12 37 -35 57 -105 51 -177 l-3 -44 -85 -17 c-228 -47 -380 -123 -432 -216
-34 -61 -51 -149 -42 -217 15 -114 131 -207 260 -209 104 -1 233 56 297 132
14 16 28 30 30 30 2 0 7 -22 10 -50 11 -94 60 -128 168 -116 63 6 161 49 193
85 30 33 12 70 -48 102 -27 15 -54 35 -60 45 -7 12 -13 133 -16 339 -6 346 -7
354 -65 423 -36 43 -96 77 -171 96 -66 17 -206 20 -239 6z m207 -652 c2 -137
1 -139 -47 -184 -51 -48 -118 -71 -162 -57 -62 21 -94 124 -59 191 36 70 143
129 234 131 l32 1 2 -82z"/>
<path d="M2934 6072 c-217 -77 -344 -264 -344 -505 0 -278 142 -488 372 -548
92 -24 150 -24 241 1 156 43 278 129 293 205 5 30 3 41 -15 58 -19 19 -24 20
-53 8 -165 -66 -281 -81 -353 -44 -81 42 -167 163 -182 258 l-6 35 164 0 c90
0 220 3 289 6 171 8 178 16 155 180 -24 172 -91 269 -223 325 -67 29 -90 33
-182 36 -83 3 -116 0 -156 -15z m190 -156 c57 -24 106 -108 106 -181 0 -19 -6
-35 -14 -38 -13 -5 -193 -10 -293 -8 l-43 1 0 53 c0 57 25 121 58 150 40 36
128 47 186 23z"/>
<path d="M8635 6076 c-108 -28 -192 -89 -241 -178 -57 -103 -30 -253 61 -337
45 -42 154 -97 249 -127 75 -23 136 -69 154 -116 12 -31 12 -43 1 -80 -18 -57
-76 -88 -161 -88 -109 0 -144 29 -190 158 -13 38 -32 71 -45 79 -20 13 -26 13
-60 -4 l-38 -18 3 -118 c1 -65 7 -127 12 -138 45 -83 310 -143 461 -105 138
35 230 103 278 206 51 108 27 246 -57 333 -48 49 -91 74 -232 133 -67 28 -130
62 -152 82 -33 29 -38 40 -38 77 0 59 28 91 96 111 84 24 126 13 167 -44 19
-26 45 -66 58 -89 27 -48 69 -64 109 -43 21 11 21 16 15 113 -8 123 -19 143
-101 176 -49 20 -79 25 -179 27 -76 2 -138 -1 -170 -10z"/>
<path d="M8266 4619 c-27 -5 -99 -32 -160 -59 l-110 -50 -55 28 c-51 24 -66
27 -161 26 -173 -1 -253 -43 -688 -360 -161 -118 -312 -225 -335 -238 -23 -14
-114 -43 -202 -66 -88 -23 -172 -47 -187 -55 -27 -13 -29 -12 -63 35 -38 51
-131 128 -199 162 -128 65 -219 75 -776 82 -404 5 -503 14 -617 52 -90 30
-304 125 -446 198 -340 174 -656 244 -1047 233 -333 -9 -434 -41 -1015 -322
-268 -130 -753 -354 -780 -361 -12 -3 -38 -18 -56 -34 l-34 -28 -3 -808 c-2
-595 1 -816 9 -837 15 -36 46 -57 83 -57 16 0 151 40 300 89 790 260 823 269
1036 257 130 -6 229 -28 375 -81 175 -64 1384 -411 1690 -486 70 -17 119 -22
220 -22 191 1 244 18 792 251 257 110 518 221 578 245 572 234 854 361 977
443 38 26 149 123 246 216 153 147 497 451 955 843 162 139 183 174 181 310
-1 105 -21 165 -84 250 -49 66 -93 100 -161 126 -62 24 -192 33 -263 18z m159
-210 c56 -16 110 -75 125 -138 20 -85 11 -101 -113 -205 -62 -51 -216 -182
-343 -292 -127 -109 -277 -239 -335 -289 -57 -49 -177 -158 -266 -241 -89 -84
-188 -170 -220 -192 -118 -80 -304 -163 -1088 -487 -44 -18 -259 -110 -478
-204 -219 -94 -436 -183 -483 -197 -78 -25 -94 -26 -207 -21 -118 5 -133 9
-502 115 -209 60 -562 162 -785 226 -223 64 -457 135 -520 157 -63 22 -152 49
-197 60 -116 26 -313 40 -426 28 -162 -16 -162 -16 -708 -193 -162 -53 -301
-96 -307 -96 -9 0 -12 157 -12 641 l0 640 183 88 c100 49 252 121 337 161 85
40 256 121 380 180 394 188 500 220 760 227 195 5 325 -7 524 -52 131 -29 223
-63 368 -136 197 -99 434 -201 543 -234 151 -46 241 -53 740 -60 537 -8 588
-17 701 -130 59 -58 84 -120 84 -204 -1 -101 -48 -168 -152 -216 -168 -77
-450 -78 -953 -4 -187 27 -243 31 -512 36 -330 6 -343 4 -388 -49 -28 -34 -31
-64 -11 -113 25 -58 30 -59 386 -66 267 -6 358 -12 510 -32 478 -66 758 -69
970 -10 107 30 241 116 285 183 15 23 37 35 95 54 94 31 284 86 414 120 116
31 182 64 291 147 657 501 866 651 1021 730 153 78 207 90 289 68z m-655 -48
c0 -4 -26 -25 -57 -46 -32 -21 -96 -68 -143 -105 -197 -154 -632 -482 -663
-500 -27 -16 -488 -153 -493 -147 -1 1 -5 21 -9 44 l-6 41 53 15 c29 8 113 31
186 51 166 45 231 78 407 212 77 58 198 147 268 197 71 51 146 105 168 120
108 78 289 152 289 118z"/>
</g>
</svg>
