<?xml version="1.0" standalone="no"?>
<!DOCTYPE svg PUBLIC "-//W3C//DTD SVG 20010904//EN"
 "http://www.w3.org/TR/2001/REC-SVG-20010904/DTD/svg10.dtd">
<svg version="1.0" xmlns="http://www.w3.org/2000/svg"
 width="512.000000pt" height="512.000000pt" viewBox="0 0 512.000000 512.000000"
 preserveAspectRatio="xMidYMid meet">

<g transform="translate(0.000000,512.000000) scale(0.100000,-0.100000)"
fill="#000000" stroke="none">
<path d="M2480 4637 c-386 -278 -694 -400 -1144 -452 -139 -16 -181 -33 -207
-82 -11 -23 -15 -133 -17 -623 -4 -789 5 -912 84 -1150 110 -332 339 -601 749
-882 194 -134 532 -328 569 -328 9 0 16 -3 16 -7 0 -5 -343 -7 -762 -6 -823 3
-800 4 -826 -50 -16 -34 -1 -92 28 -107 12 -7 566 -10 1578 -10 1471 0 1561 1
1581 18 12 9 24 33 27 53 5 29 1 41 -19 65 l-25 29 -766 0 c-421 0 -766 2
-765 5 0 3 60 34 132 70 345 171 701 431 894 652 197 225 294 421 349 708 15
73 17 187 21 805 3 676 3 722 -14 755 -28 55 -69 76 -163 84 -133 11 -356 52
-486 90 -213 61 -445 177 -629 313 -108 79 -149 90 -205 50z m157 -226 c343
-230 642 -335 1126 -396 l48 -6 -4 -692 c-3 -670 -4 -695 -25 -789 -79 -349
-256 -598 -617 -869 -117 -87 -339 -224 -517 -319 l-98 -52 -105 56 c-320 171
-601 369 -786 555 -146 147 -238 297 -304 494 -64 192 -65 210 -65 948 l0 666
73 7 c370 35 724 160 1060 377 67 43 123 78 124 79 1 0 41 -27 90 -59z"/>
<path d="M3255 3570 c-29 -12 -29 -11 -435 -535 -205 -264 -378 -486 -384
-492 -9 -10 -53 33 -193 185 -270 293 -258 282 -299 282 -48 0 -70 -14 -83
-51 -8 -22 -7 -38 2 -59 16 -38 492 -554 524 -569 27 -12 63 -14 87 -5 9 4 78
86 154 183 446 570 729 938 735 955 13 34 -12 87 -49 102 -18 8 -35 14 -36 13
-2 0 -12 -4 -23 -9z"/>
</g>
</svg>
