<?xml version="1.0" standalone="no"?>
<!DOCTYPE svg PUBLIC "-//W3C//DTD SVG 20010904//EN"
 "http://www.w3.org/TR/2001/REC-SVG-20010904/DTD/svg10.dtd">
<svg version="1.0" xmlns="http://www.w3.org/2000/svg"
 width="512.000000pt" height="512.000000pt" viewBox="0 0 512.000000 512.000000"
 preserveAspectRatio="xMidYMid meet">

<g transform="translate(0.000000,512.000000) scale(0.100000,-0.100000)"
fill="#000000" stroke="none">
<path d="M2893 4855 c-195 -42 -349 -200 -361 -368 -4 -53 -7 -60 -32 -68 -28
-10 -50 -45 -50 -80 0 -25 43 -69 68 -69 15 0 20 -12 29 -70 6 -39 25 -99 41
-134 32 -68 100 -151 133 -161 40 -13 16 -20 -74 -22 -107 -1 -227 -21 -422
-68 -274 -66 -315 -89 -455 -254 -55 -64 -138 -161 -185 -216 -47 -55 -99
-128 -116 -162 -24 -51 -35 -63 -54 -63 -32 0 -105 -58 -130 -103 l-21 -36
-89 54 c-92 56 -135 67 -168 43 -8 -7 -74 -110 -145 -228 -71 -118 -148 -244
-170 -279 -23 -35 -42 -73 -42 -83 0 -52 28 -73 432 -325 222 -139 417 -257
433 -263 37 -14 77 -5 105 25 36 39 340 528 340 548 0 53 -37 92 -147 156 -9
5 -4 23 17 65 23 45 30 72 30 117 l0 59 112 138 c211 259 193 242 254 242 30
0 54 -3 54 -8 0 -4 -20 -77 -44 -162 -101 -350 -117 -424 -114 -534 2 -99 0
-105 -54 -266 -31 -91 -66 -186 -76 -211 l-20 -47 -129 -50 c-70 -27 -226 -82
-346 -122 -133 -44 -229 -81 -246 -96 -38 -32 -55 -75 -49 -127 5 -38 92 -289
154 -442 51 -125 146 -174 252 -130 76 32 121 101 130 197 l5 58 86 26 c147
44 183 55 299 100 303 117 378 183 469 419 25 66 48 122 50 124 2 3 48 -26
102 -63 89 -60 101 -72 117 -114 42 -115 168 -433 219 -552 30 -72 55 -132 55
-135 0 -2 -257 -6 -571 -7 l-571 -3 -19 -24 c-29 -36 -25 -94 7 -120 26 -21
34 -21 728 -21 575 0 712 3 756 14 92 24 331 137 371 176 68 65 71 153 6 227
-41 46 -99 73 -162 73 l-51 0 -108 333 c-60 182 -120 357 -135 387 -19 41 -72
102 -203 236 -98 100 -178 184 -178 187 0 6 49 213 56 239 5 16 11 15 72 -8
92 -35 132 -29 342 54 251 99 272 112 311 197 57 124 -32 295 -169 326 -37 8
-163 -18 -268 -55 l-41 -14 -82 168 c-83 169 -148 260 -213 300 l-29 17 65 7
c139 14 258 78 333 179 52 72 80 157 89 276 l7 89 70 5 c61 4 74 8 94 31 29
35 29 68 -1 103 -22 26 -29 28 -101 28 l-77 0 -17 56 c-44 141 -174 249 -340
285 -81 17 -137 17 -218 -1z m162 -156 c103 -19 186 -74 225 -149 l18 -36
-261 -28 c-144 -15 -281 -30 -305 -33 l-43 -6 7 29 c27 113 129 203 251 224
27 4 48 8 49 9 0 0 27 -4 59 -10z m253 -434 c-8 -124 -64 -216 -163 -267 -57
-30 -167 -36 -236 -13 -73 25 -160 110 -181 180 -23 72 -29 125 -15 126 7 0
122 13 257 28 135 16 267 29 294 30 l49 1 -5 -85z m-463 -571 c102 -36 185
-159 185 -275 0 -27 -20 -134 -46 -237 -85 -352 -144 -613 -144 -642 0 -33 32
-71 255 -300 83 -85 156 -168 162 -185 6 -16 65 -192 130 -390 137 -416 128
-401 242 -398 42 1 75 -3 86 -10 15 -11 -1 -21 -122 -77 -115 -54 -149 -65
-203 -68 l-65 -4 -67 154 c-71 162 -150 362 -214 542 -27 76 -49 120 -74 147
-19 21 -127 102 -240 180 -351 244 -396 283 -428 378 -27 77 -15 141 109 592
32 119 59 226 59 238 0 12 -11 33 -25 46 -23 24 -28 25 -170 25 -107 0 -153
-4 -174 -14 -31 -17 -92 -85 -239 -268 -131 -164 -167 -184 -223 -129 -35 36
-38 81 -8 130 29 48 321 393 361 426 18 16 48 34 66 42 44 18 288 77 427 102
133 25 283 23 360 -5z m377 -538 c33 -24 65 -20 210 24 73 22 141 40 150 40
23 0 58 -47 58 -80 0 -15 -8 -34 -17 -42 -10 -9 -81 -39 -158 -68 -77 -29
-152 -59 -167 -66 -38 -19 -78 -17 -134 7 -27 11 -50 22 -52 24 -2 2 9 58 24
124 l29 121 17 -34 c10 -19 28 -42 40 -50z m-1752 -226 c26 -63 129 -130 198
-130 29 0 32 -10 16 -48 -9 -22 -18 -31 -26 -26 -37 21 -254 158 -261 164 -8
7 39 70 53 70 4 0 13 -14 20 -30z m-25 -261 c176 -111 321 -204 323 -205 6 -4
-222 -369 -237 -378 -5 -3 -87 43 -182 102 -304 189 -493 307 -503 314 -5 3
17 48 51 100 32 51 74 117 91 146 97 160 93 154 116 139 11 -8 165 -106 341
-218z m963 -513 c56 -42 102 -79 102 -82 0 -15 -115 -275 -136 -307 -52 -79
-238 -167 -572 -268 -214 -65 -222 -71 -222 -174 0 -57 -4 -78 -19 -96 -18
-21 -21 -22 -35 -9 -15 16 -145 356 -149 391 -2 18 16 26 148 68 306 97 544
198 580 245 21 28 135 330 135 358 0 7 15 -2 33 -19 17 -17 78 -65 135 -107z"/>
<path d="M4336 3728 c-13 -13 -101 -142 -194 -288 -164 -258 -298 -465 -428
-661 -70 -105 -79 -144 -44 -179 18 -18 33 -20 190 -20 129 0 170 -3 170 -12
0 -7 -5 -31 -10 -53 -5 -22 -36 -183 -69 -358 -61 -326 -63 -356 -26 -371 31
-11 72 -6 87 12 9 9 152 233 318 497 167 264 321 506 342 538 50 73 54 120 13
154 -25 22 -34 23 -193 23 l-168 0 68 333 c37 182 64 342 61 355 -12 51 -75
67 -117 30z m-161 -643 c-19 -81 -35 -155 -35 -165 0 -9 9 -29 21 -44 l20 -26
155 0 155 0 -37 -57 c-21 -32 -98 -156 -172 -276 -74 -120 -136 -216 -137
-215 -2 2 13 84 33 183 23 115 33 190 28 208 -11 45 -57 58 -194 56 -65 -1
-115 2 -113 7 2 5 23 38 46 74 23 36 90 143 150 237 60 95 110 171 112 169 2
-2 -12 -70 -32 -151z"/>
</g>
</svg>
