<?xml version="1.0" standalone="no"?>
<!DOCTYPE svg PUBLIC "-//W3C//DTD SVG 20010904//EN"
 "http://www.w3.org/TR/2001/REC-SVG-20010904/DTD/svg10.dtd">
<svg version="1.0" xmlns="http://www.w3.org/2000/svg"
 width="512.000000pt" height="512.000000pt" viewBox="0 0 512.000000 512.000000"
 preserveAspectRatio="xMidYMid meet">

<g transform="translate(0.000000,512.000000) scale(0.100000,-0.100000)"
fill="#000000" stroke="none">
<path d="M2293 4371 c-97 -33 -188 -127 -220 -227 l-17 -54 -190 0 c-134 -1
-196 -4 -207 -13 -25 -19 -39 -52 -39 -91 l0 -36 -223 0 c-214 0 -226 -1 -267
-23 -30 -16 -51 -37 -67 -67 l-23 -44 2 -1532 3 -1532 31 -39 c63 -79 -35 -73
1205 -73 961 0 1119 -2 1210 -16 644 -98 1150 519 923 1125 -86 228 -297 432
-529 511 l-50 17 -5 779 c-4 566 -8 784 -17 799 -18 31 -65 73 -96 84 -17 7
-117 11 -248 11 l-219 0 0 39 c0 28 -8 49 -26 70 l-26 31 -194 0 c-182 0 -194
1 -194 18 0 11 -14 46 -31 80 -38 78 -120 153 -194 181 -73 27 -216 29 -292 2z
m254 -177 c56 -32 93 -97 102 -176 12 -97 15 -98 240 -98 l186 0 0 -140 0
-140 -638 -2 -637 -3 0 143 0 142 185 0 c184 0 186 0 210 25 19 18 25 35 25
67 1 59 29 117 80 160 72 63 163 71 247 22z m-927 -526 c0 -94 3 -118 20 -145
40 -66 4 -63 798 -63 l719 0 34 23 c51 34 59 59 59 185 l0 112 205 0 205 0 0
-732 c0 -403 -4 -738 -8 -744 -4 -6 -45 -14 -92 -17 -115 -8 -187 -28 -305
-87 -174 -86 -301 -213 -385 -385 -53 -109 -70 -180 -77 -313 -12 -240 62
-447 222 -620 l67 -72 -936 0 -936 0 0 1485 0 1485 205 0 205 0 0 -112z m2138
-1563 c234 -47 430 -220 507 -450 49 -146 43 -325 -16 -463 -58 -135 -177
-263 -308 -331 -107 -56 -185 -74 -311 -75 -186 -1 -340 64 -475 199 -92 91
-152 198 -181 320 -24 103 -16 266 19 363 49 141 139 259 255 335 158 104 328
138 510 102z"/>
<path d="M1584 3038 c-47 -22 -57 -92 -20 -135 l24 -28 841 -3 c572 -1 848 1
861 8 30 16 52 67 45 101 -4 16 -18 38 -32 49 -25 20 -39 20 -862 19 -554 0
-843 -4 -857 -11z"/>
<path d="M1565 2525 c-17 -16 -25 -35 -25 -60 0 -25 8 -44 25 -60 l24 -25 571
0 571 0 24 25 c14 13 25 36 25 50 0 33 -24 81 -45 89 -9 3 -271 6 -581 6
l-565 0 -24 -25z"/>
<path d="M1565 2034 c-33 -36 -33 -87 0 -119 l24 -25 413 0 c458 0 451 -1 464
64 6 36 -7 72 -35 93 -12 9 -120 12 -429 13 l-413 0 -24 -26z"/>
<path d="M3906 1748 c-23 -24 -117 -130 -210 -235 -93 -106 -171 -193 -175
-193 -3 0 -53 49 -111 110 -92 96 -109 110 -138 110 -45 0 -82 -38 -82 -85 0
-31 14 -50 111 -157 164 -181 172 -188 219 -188 51 0 55 4 329 313 199 225
211 241 211 278 0 51 -35 89 -81 89 -24 0 -41 -10 -73 -42z"/>
</g>
</svg>
